<svg xmlns="http://www.w3.org/2000/svg" viewBox="0 0 720.52 538.06">
  <g fill="#FFFFFF">
    <path d="M530,162.07c-13.02-3.72-25.45-11.44-36.92-18.59-47.95-29.91-89.79-72.3-119.91-120.09-4.1-6.5-7.98-15.89-12.34-21.66-.65-.86-.92-1.98-2.32-1.68-30.01,56.06-74.74,105.15-127.99,140.03-13.39,8.77-27.45,17.09-42.53,22.49,6.47,10.52,15.77,19.54,26.68,25.26,58.38-29.38,106.7-76.15,144.83-128.75,16.95,23.12,34.67,45.71,55.49,65.49,20.8,19.77,50.72,43.39,75.71,57.29,3.54,1.97,11.49,6.98,15.02,5.46s15.54-12.52,18.31-15.74c1-1.17,6.77-8.66,5.98-9.52ZM318,275.06v-51.5l36.01-37.99,5.35-3.4c13.39,13.6,28.12,26.13,39.64,41.39v57.5c22.25-2.03,41.03-15.48,62.87-19.13l-.04-67.2c-38.31-26.19-73.83-56.91-102.37-93.66-1.82-.45-14.92,16.81-17.44,19.53-25.26,27.24-54.09,52.62-85.05,73.18l.15,60.16c21.61,3.21,41.42,11.68,60.86,21.14ZM595,286.06c-37.8-15.6-80.93-21.58-120.77-10.27-46.79,13.29-71.54,35.54-125.24,24.78-58.1-11.65-87.78-39.9-153.35-31.37-25.27,3.29-50.81,11.32-72.64,24.36v35.5c23.09-9.43,45.97-21.12,70.77-25.73,71.2-13.21,122.41,38.24,193.72,33.72,43-2.73,79.18-31.87,121.02-33.98,19.62-.99,43.56,3.89,62.26,9.72,8.27,2.58,16,6.7,24.23,8.27v-35ZM123,356.56v35.5c10.08-4.47,19.31-10.51,29.32-15.18,28.47-13.27,56.08-22.21,87.86-16.51,28.07,5.03,52.9,20.76,79.6,29.4,40.72,13.17,71.22,12.07,111.48-1.95,57.02-19.86,78.13-41.5,141.41-12.94l22.33,12.17v-36.5c0-.5-.26-2.21-.64-2.54-21.35-10.58-44.78-19.48-68.87-20.95-57.22-3.49-101.1,40.09-158.98,36.98-44.81-2.4-76.57-27.7-117.69-36.31-44.36-9.28-88.57,5.36-125.82,28.82ZM167,469.08c-12.76-6.36-24.96-10.54-39.44-6.95-20.67,5.13-24.7,30.43-4.24,39.11,6.36,2.7,34.23,6.47,25.25,17.9-5.44,6.92-27.66,1.48-34.08-4.03l-7.49,12.94c16.01,10.26,56.58,16.13,61.92-8.56,2.77-12.79-3.26-19.74-14.25-24.6-6.96-3.08-30.19-5.41-25.17-15.83,3.95-8.2,25.1-.95,31.37,1.92l6.13-11.9ZM238.88,469.18c-18.5-12.73-60.38-13.24-55.79,18.29,1.11,7.64,8.02,11.78,14.55,14.45,5.84,2.39,19.09,4.6,23.31,7.69,3.92,2.87,2.8,10.65-2.92,11.96-11.07,2.54-21.41-1.53-31.39-5.59l-6.64,12.07c15.08,7.79,33.69,13.07,50,5.51,17.59-8.16,16-30.03-1.01-37.99-6.4-2.99-20.97-5.12-25.28-8.46-2.86-2.22-3.61-7.63-.1-9.95,8.38-5.53,20.61.98,28.76,3.98,1.08-2.49,7.74-9.84,6.51-11.96ZM18,463.06H0l16.1,72.9,17.29.16,16.11-49.07,16.6,48.91,17.85.05,15.05-72.95h-18l-8.01,46.99-15.47-46.01-14.86-1.03-15.16,49.06-9.5-49.01Z" />
    <path d="M318,275.06c-19.44-9.46-39.25-17.93-60.86-21.14l-.15-60.16c30.95-20.56,59.78-45.94,85.05-73.18,2.52-2.72,15.62-19.97,17.44-19.53,28.54,36.75,64.06,67.47,102.37,93.66l.04,67.2c-21.84,3.65-40.62,17.1-62.87,19.13v-57.5c-11.52-15.26-26.25-27.8-39.64-41.39l-5.35,3.4-36.01,37.99v51.5Z" />
    <path d="M123,356.56c37.25-23.46,81.46-38.1,125.82-28.82,41.12,8.6,72.88,33.9,117.69,36.31,57.89,3.1,101.76-40.47,158.98-36.98,24.09,1.47,47.52,10.37,68.87,20.95.38.33.64,2.04.64,2.54v36.5l-22.33-12.17c-63.28-28.56-84.39-6.92-141.41,12.94-40.26,14.02-70.76,15.11-111.48,1.95-26.7-8.63-51.53-24.36-79.6-29.4-31.78-5.7-59.39,3.24-87.86,16.51-10.01,4.67-19.24,10.7-29.32,15.18v-35.5Z" />
    <path d="M595,286.06v35c-8.23-1.57-15.96-5.69-24.23-8.27-18.7-5.84-42.64-10.71-62.26-9.72-41.84,2.11-78.02,31.25-121.02,33.98-71.31,4.53-122.52-46.93-193.72-33.72-24.8,4.6-47.68,16.3-70.77,25.73v-35.5c21.84-13.04,47.38-21.07,72.64-24.36,65.57-8.53,95.25,19.72,153.35,31.37,53.7,10.77,78.45-11.49,125.24-24.78,39.84-11.32,82.97-5.33,120.77,10.27Z" />
    <path d="M530,162.07c.8.85-4.97,8.35-5.98,9.52-2.77,3.22-14.93,14.29-18.31,15.74s-11.47-3.49-15.02-5.46c-24.99-13.91-54.91-37.52-75.71-57.29-20.81-19.78-38.54-42.38-55.49-65.49-38.13,52.6-86.46,99.37-144.83,128.75-10.91-5.73-20.21-14.74-26.68-25.26,15.08-5.4,29.14-13.72,42.53-22.49C283.77,105.2,328.5,56.11,358.51.05c1.4-.3,1.68.82,2.32,1.68,4.36,5.78,8.24,15.17,12.34,21.66,30.13,47.78,71.96,90.18,119.91,120.09,11.46,7.15,23.9,14.88,36.92,18.59Z" />
    <polygon points="18 463.06 27.5 512.07 42.66 463.02 57.52 464.04 72.99 510.06 81 463.06 99 463.06 83.95 536.01 66.1 535.96 49.5 487.05 33.39 536.12 16.1 535.96 0 463.06 18 463.06" />
    <path d="M167,469.08l-6.13,11.9c-6.26-2.87-27.41-10.13-31.37-1.92-5.02,10.42,18.21,12.76,25.17,15.83,10.99,4.86,17.01,11.81,14.25,24.6-5.34,24.68-45.91,18.82-61.92,8.56l7.49-12.94c6.42,5.51,28.65,10.96,34.08,4.03,8.97-11.43-18.9-15.2-25.25-17.9-20.46-8.69-16.43-33.98,4.24-39.11,14.48-3.59,26.67.59,39.44,6.95Z" />
    <path d="M238.88,469.18c1.23,2.12-5.43,9.48-6.51,11.96-8.15-3-20.37-9.51-28.76-3.98-3.51,2.32-2.76,7.73.1,9.95,4.31,3.34,18.88,5.46,25.28,8.46,17,7.96,18.6,29.83,1.01,37.99-16.31,7.56-34.92,2.28-50-5.51l6.64-12.07c9.98,4.06,20.32,8.13,31.39,5.59,5.72-1.31,6.84-9.09,2.92-11.96-4.22-3.09-17.47-5.31-23.31-7.69-6.53-2.67-13.44-6.81-14.55-14.45-4.59-31.53,37.29-31.01,55.79-18.29Z" />
    <path d="M257,492.45c0-9.69,3.21-17.18,9.62-22.47,6.41-5.29,15.09-7.94,26.04-7.94s19.6,2.65,25.97,7.94c6.37,5.29,9.55,12.78,9.55,22.47v43.6h-17.09v-44.27c0-5.47-1.59-9.57-4.78-12.31-3.19-2.74-7.74-4.1-13.66-4.1s-10.5,1.35-13.72,4.04c-3.23,2.69-4.84,6.82-4.84,12.38v11.84c1.17-1.88,2.89-3.41,5.18-4.57,2.29-1.17,4.96-1.75,8.01-1.75h10.9v14.26h-12.11c-3.5,0-6.37,1.14-8.61,3.43-2.24,2.29-3.36,5.05-3.36,8.28v12.78h-17.09v-43.6Z" />
    <path d="M346.33,492.45c0-9.69,3.21-17.18,9.62-22.47,6.41-5.29,15.09-7.94,26.04-7.94s19.6,2.65,25.97,7.94c6.37,5.29,9.55,12.78,9.55,22.47v43.6h-17.09v-44.27c0-5.47-1.59-9.57-4.78-12.31-3.19-2.74-7.74-4.1-13.66-4.1s-10.5,1.35-13.73,4.04c-3.23,2.69-4.84,6.82-4.84,12.38v11.84c1.17-1.88,2.89-3.41,5.18-4.57,2.29-1.17,4.96-1.75,8.01-1.75h10.9v14.26h-12.11c-3.5,0-6.37,1.14-8.61,3.43-2.24,2.29-3.36,5.05-3.36,8.28v12.78h-17.09v-43.6Z" />
    <path d="M446.57,534.49c-4.22-2.38-7.42-5.65-9.62-9.82-2.2-4.17-3.3-8.81-3.3-13.93v-46.69h17.09v45.88c0,9.87,5.25,14.8,15.74,14.8,8.25,0,14.71-3.68,19.38-11.03v-49.65h17.09v71.99h-16.42v-8.88c-3.41,3.59-7.29,6.3-11.64,8.14-4.35,1.84-8.77,2.76-13.25,2.76-5.83,0-10.86-1.19-15.07-3.57Z" />
    <path d="M527.1,531.85c-2.47-2.8-3.7-6.71-3.7-11.74v-51.36c0-11.38,3.27-19.58,9.82-24.61h-22.88v-15.08h45.21v14.08c-5.29,2.28-9.13,5.33-11.5,9.18-2.38,3.84-3.57,9.18-3.57,16v46.09c0,2.47.49,4.18,1.48,5.12.99.95,2.6,1.42,4.84,1.42h4.71v15.08h-13.73c-4.67,0-8.23-1.4-10.7-4.2Z" />
    <path d="M564.98,464.05h16.42v8.88c3.41-3.59,7.38-6.3,11.91-8.14,4.53-1.84,9.08-2.76,13.66-2.76,8.88,0,15.65,2.49,20.32,7.47,4.66,4.98,7,11.37,7,19.17v47.36h-17.09v-46.56c0-9.42-5.02-14.13-15.07-14.13-8.7,0-15.39,3.68-20.05,11.03v49.65h-17.09v-71.99Z" />
    <path d="M657.42,531.87c-6.46-4.12-9.69-9.96-9.69-17.49,0-3.68,1.08-7,3.23-9.96,2.15-2.96,4.93-5.02,8.34-6.19-3.23-1.52-5.85-3.72-7.87-6.59-2.02-2.87-3.03-6.1-3.03-9.69,0-6.01,2.06-10.83,6.19-14.46,4.12-3.63,10.23-5.45,18.3-5.45,2.51,0,4.93.16,7.27.47,2.33.32,4.17.7,5.52,1.14v13.32c-1.17-.54-2.67-.94-4.51-1.21-1.84-.27-3.48-.4-4.91-.4-6.91,0-10.36,2.56-10.36,7.67,0,2.78.85,4.84,2.56,6.19,1.7,1.35,4.44,2.02,8.21,2.02h9.01v13.86h-9.01c-7.63,0-11.44,3.09-11.44,9.28,0,3.23,1.59,5.77,4.78,7.6,3.18,1.84,7.56,2.76,13.12,2.76,7,0,12.13-1.43,15.41-4.31,3.27-2.87,4.91-7.09,4.91-12.65v-43.87h17.09v43.6c0,5.11-1.23,9.98-3.7,14.6-2.47,4.62-6.5,8.43-12.11,11.44-5.61,3-12.81,4.51-21.6,4.51-10.68,0-19.24-2.06-25.7-6.19Z" />
  </g>
</svg>