<svg width="31" height="25" viewBox="0 0 31 25" fill="none" xmlns="http://www.w3.org/2000/svg">
<g clip-path="url(#clip0_6001_386)">
<path d="M7.07812 0.5C8.07269 0.5 9.02651 0.895088 9.72978 1.59835C10.433 2.30161 10.8281 3.25544 10.8281 4.25C10.8281 5.24456 10.433 6.19839 9.72978 6.90165C9.02651 7.60491 8.07269 8 7.07812 8C6.08356 8 5.12974 7.60491 4.42647 6.90165C3.72321 6.19839 3.32812 5.24456 3.32812 4.25C3.32812 3.25544 3.72321 2.30161 4.42647 1.59835C5.12974 0.895088 6.08356 0.5 7.07812 0.5ZM24.3281 0.5C25.3227 0.5 26.2765 0.895088 26.9798 1.59835C27.683 2.30161 28.0781 3.25544 28.0781 4.25C28.0781 5.24456 27.683 6.19839 26.9798 6.90165C26.2765 7.60491 25.3227 8 24.3281 8C23.3336 8 22.3797 7.60491 21.6765 6.90165C20.9732 6.19839 20.5781 5.24456 20.5781 4.25C20.5781 3.25544 20.9732 2.30161 21.6765 1.59835C22.3797 0.895088 23.3336 0.5 24.3281 0.5ZM0.328125 14.5016C0.328125 11.7406 2.56875 9.5 5.32969 9.5H7.33125C8.07656 9.5 8.78438 9.66406 9.42188 9.95469C9.36094 10.2922 9.33281 10.6438 9.33281 11C9.33281 12.7906 10.1203 14.3984 11.3625 15.5C11.3531 15.5 11.3438 15.5 11.3297 15.5H1.32656C0.778125 15.5 0.328125 15.05 0.328125 14.5016ZM19.3266 15.5C19.3172 15.5 19.3078 15.5 19.2938 15.5C20.5406 14.3984 21.3234 12.7906 21.3234 11C21.3234 10.6438 21.2906 10.2969 21.2344 9.95469C21.8719 9.65938 22.5797 9.5 23.325 9.5H25.3266C28.0875 9.5 30.3281 11.7406 30.3281 14.5016C30.3281 15.0547 29.8781 15.5 29.3297 15.5H19.3266ZM10.8281 11C10.8281 9.80653 11.3022 8.66193 12.1461 7.81802C12.9901 6.97411 14.1347 6.5 15.3281 6.5C16.5216 6.5 17.6662 6.97411 18.5101 7.81802C19.354 8.66193 19.8281 9.80653 19.8281 11C19.8281 12.1935 19.354 13.3381 18.5101 14.182C17.6662 15.0259 16.5216 15.5 15.3281 15.5C14.1347 15.5 12.9901 15.0259 12.1461 14.182C11.3022 13.3381 10.8281 12.1935 10.8281 11ZM6.32812 23.2484C6.32812 19.7984 9.12656 17 12.5766 17H18.0797C21.5297 17 24.3281 19.7984 24.3281 23.2484C24.3281 23.9375 23.7703 24.5 23.0766 24.5H7.57969C6.89062 24.5 6.32812 23.9422 6.32812 23.2484Z" fill="white"/>
</g>
<defs>
<clipPath id="clip0_6001_386">
<path d="M0.328125 0.5H30.3281V24.5H0.328125V0.5Z" fill="white"/>
</clipPath>
</defs>
</svg>
