<svg width="25" height="25" viewBox="0 0 25 25" fill="none" xmlns="http://www.w3.org/2000/svg">
<g clip-path="url(#clip0_6001_374)">
<path d="M3.98438 3.5C3.98438 2.67031 3.31406 2 2.48438 2C1.65469 2 0.984375 2.67031 0.984375 3.5V19.25C0.984375 21.3219 2.6625 23 4.73438 23H23.4844C24.3141 23 24.9844 22.3297 24.9844 21.5C24.9844 20.6703 24.3141 20 23.4844 20H4.73438C4.32188 20 3.98438 19.6625 3.98438 19.25V3.5ZM23.0438 7.55938C23.6297 6.97344 23.6297 6.02188 23.0438 5.43594C22.4578 4.85 21.5062 4.85 20.9203 5.43594L15.9844 10.3766L13.2938 7.68594C12.7078 7.1 11.7563 7.1 11.1703 7.68594L5.92031 12.9359C5.33438 13.5219 5.33438 14.4734 5.92031 15.0594C6.50625 15.6453 7.45781 15.6453 8.04375 15.0594L12.2344 10.8734L14.925 13.5641C15.5109 14.15 16.4625 14.15 17.0484 13.5641L23.0484 7.56406L23.0438 7.55938Z" fill="white"/>
</g>
<defs>
<clipPath id="clip0_6001_374">
<path d="M0.984375 0.5H24.9844V24.5H0.984375V0.5Z" fill="white"/>
</clipPath>
</defs>
</svg>
