<svg width="25" height="25" viewBox="0 0 25 25" fill="none" xmlns="http://www.w3.org/2000/svg">
<g clip-path="url(#clip0_6001_364)">
<path d="M12.6563 0.5C12.8719 0.5 13.0875 0.546875 13.2844 0.635938L22.111 4.38125C23.1422 4.81719 23.911 5.83438 23.9063 7.0625C23.8828 11.7125 21.9703 20.2203 13.8938 24.0875C13.111 24.4625 12.2016 24.4625 11.4188 24.0875C3.34221 20.2203 1.42971 11.7125 1.40627 7.0625C1.40158 5.83438 2.17033 4.81719 3.20158 4.38125L12.0328 0.635938C12.225 0.546875 12.4406 0.5 12.6563 0.5ZM12.6563 3.63125V21.35C19.125 18.2188 20.8641 11.2859 20.9063 7.12813L12.6563 3.63125Z" fill="white"/>
</g>
<defs>
<clipPath id="clip0_6001_364">
<path d="M0.65625 0.5H24.6562V24.5H0.65625V0.5Z" fill="white"/>
</clipPath>
</defs>
</svg>
